Coordinates
version=1
nRows=27
nColumns=38
inDegrees=no

Units are S.I. units (second, meters, Newtons, ...)
If the header above contains a line with 'inDegrees', this indicates whether rotational values are in degrees (yes) or radians (no).

endheader
time	pelvis_tilt	pelvis_list	pelvis_rotation	pelvis_tx	pelvis_ty	pelvis_tz	hip_flexion_r	hip_adduction_r	hip_rotation_r	knee_angle_r	ankle_angle_r	subtalar_angle_r	mtp_angle_r	hip_flexion_l	hip_adduction_l	hip_rotation_l	knee_angle_l	ankle_angle_l	subtalar_angle_l	mtp_angle_l	lumbar_extension	lumbar_bending	lumbar_rotation	arm_flex_r	arm_add_r	arm_rot_r	elbow_flex_r	pro_sup_r	wrist_flex_r	wrist_dev_r	arm_flex_l	arm_add_l	arm_rot_l	elbow_flex_l	pro_sup_l	wrist_flex_l	wrist_dev_l
10	-3.09862	1.36875	-1.14851	0.659906	1.74209	0.951445	-0.0510598	0.102149	-0.156436	0.633743	-0.216604	0	0	0.1715	0.000374017	0.14976	0.331558	-0.496451	0	0	-0.347778	0.0612332	0.278553	0.703852	-0.494207	-0.00969957	1.0163	1.5708	0	0	0.407694	-0.634889	0.56706	0.838569	1.5708	0	0
10.01	-3.07957	1.37006	-1.15734	0.660466	1.73706	0.951581	-0.0493826	0.101132	-0.158176	0.626043	-0.214109	0	0	0.172714	0.00113418	0.1483	0.334707	-0.475087	0	0	-0.34712	0.0633389	0.275164	0.705923	-0.497641	-0.011405	1.01165	1.5708	0	0	0.417374	-0.636048	0.56564	0.8496	1.5708	0	0
10.02	-3.05859	1.37142	-1.16844	0.661084	1.73213	0.951842	-0.0472125	0.0996306	-0.159079	0.619718	-0.213334	0	0	0.17228	0.0020531	0.145925	0.336387	-0.476334	0	0	-0.344993	0.0640863	0.277233	0.701232	-0.504609	-0.020198	1.0097	1.5708	0	0	0.438547	-0.633311	0.581613	0.850484	1.5708	0	0
10.03	-3.03677	1.37067	-1.18027	0.66164	1.72719	0.952243	-0.0479161	0.0986935	-0.159772	0.611837	-0.211325	0	0	0.170022	0.00243437	0.14305	0.343643	-0.453694	0	0	-0.346733	0.0658974	0.274368	0.70212	-0.508131	-0.0235433	1.00702	1.5708	0	0	0.449475	-0.632631	0.580275	0.857333	1.5708	0	0
10.04	-3.01329	1.36849	-1.19394	0.662187	1.72233	0.952823	-0.050618	0.0977014	-0.160727	0.60318	-0.210117	0	0	0.165068	0.00230259	0.139868	0.351417	-0.432303	0	0	-0.350235	0.0676805	0.270728	0.704064	-0.510824	-0.0259413	1.00406	1.5708	0	0	0.458631	-0.631909	0.575631	0.863919	1.5708	0	0
10.05	-2.98951	1.36306	-1.20806	0.662697	1.71744	0.953618	-0.0577528	0.0977412	-0.161409	0.591608	-0.211394	0	0	0.156372	0.00109995	0.138093	0.362311	-0.392531	0	0	-0.360256	0.0716279	0.256193	0.720044	-0.505641	-0.0133956	0.995979	1.5708	0	0	0.445526	-0.63722	0.535961	0.885141	1.5708	0	0
10.06	-2.9736	1.36303	-1.21538	0.663224	1.71284	0.954008	-0.0575074	0.096889	-0.160936	0.584195	-0.21043	0	0	0.150667	-0.000505337	0.141507	0.367201	-0.382039	0	0	-0.358577	0.0720996	0.261763	0.710076	-0.514222	-0.0273819	0.998148	1.5708	0	0	0.469828	-0.630903	0.555127	0.878608	1.5708	0	0
10.07	-2.91687	1.341	-1.26156	0.664319	1.70751	0.95543	-0.0841874	0.0942584	-0.166019	0.57298	-0.210405	0	0	0.125491	-0.00197909	0.129207	0.387607	-0.358332	0	0	-0.431803	0.0447013	0.168804	0.79483	-0.457242	0.0429199	0.987469	1.5708	0	0	0.20842	-0.506476	-0.120517	1.11572	1.5708	0	0
10.08	-2.89788	1.33663	-1.2719	0.664824	1.70291	0.956044	-0.0893203	0.0929233	-0.167841	0.564301	-0.211598	0	0	0.11888	-0.00499431	0.127288	0.405792	-0.33026	0	0	-0.44391	0.0433959	0.150168	0.809718	-0.448274	0.0536008	0.981756	1.5708	0	0	0.192106	-0.50557	-0.162867	1.14952	1.5708	0	0
10.09	-2.88284	1.33462	-1.27878	0.66527	1.69851	0.956453	-0.091322	0.0911179	-0.170393	0.557318	-0.212272	0	0	0.115964	-0.00876749	0.126279	0.426979	-0.311975	0	0	-0.44974	0.0417741	0.1419	0.812682	-0.447067	0.0524529	0.981487	1.5708	0	0	0.191136	-0.505997	-0.179265	1.16844	1.5708	0	0
10.1	-2.86993	1.33382	-1.28404	0.665619	1.69423	0.956727	-0.0915899	0.0887362	-0.173733	0.551572	-0.212709	0	0	0.115351	-0.0132098	0.125774	0.450761	-0.300483	0	0	-0.452576	0.0404029	0.134932	0.814523	-0.446607	0.0516868	0.979528	1.5708	0	0	0.192146	-0.507687	-0.189577	1.18277	1.5708	0	0
10.11	-2.86025	1.33362	-1.28676	0.665876	1.68999	0.956907	-0.0904192	0.0863862	-0.176764	0.547149	-0.213317	0	0	0.11676	-0.018532	0.125294	0.478278	-0.291985	0	0	-0.454327	0.0397529	0.129143	0.815371	-0.446867	0.0508147	0.978505	1.5708	0	0	0.193676	-0.50988	-0.196916	1.19509	1.5708	0	0
10.12	-2.85217	1.33353	-1.28844	0.666068	1.68583	0.95705	-0.0890066	0.0840789	-0.179679	0.543007	-0.213971	0	0	0.118725	-0.0245771	0.124434	0.508315	-0.284959	0	0	-0.455177	0.0395098	0.124345	0.815182	-0.447347	0.0495594	0.977735	1.5708	0	0	0.195956	-0.512755	-0.201186	1.20492	1.5708	0	0
10.13	-2.84415	1.3327	-1.29051	0.66624	1.68173	0.957209	-0.0883852	0.0817784	-0.18268	0.539076	-0.214608	0	0	0.119774	-0.0311274	0.123809	0.539553	-0.27909	0	0	-0.455378	0.0391957	0.121604	0.813471	-0.449104	0.0474556	0.976136	1.5708	0	0	0.201124	-0.515714	-0.200874	1.21077	1.5708	0	0
10.14	-2.83882	1.33201	-1.2906	0.666367	1.67769	0.9573	-0.0873415	0.0798291	-0.185092	0.535527	-0.215222	0	0	0.121245	-0.0385204	0.122886	0.572635	-0.274986	0	0	-0.454972	0.0394165	0.119134	0.812109	-0.450774	0.0464472	0.97411	1.5708	0	0	0.205452	-0.518672	-0.200605	1.21584	1.5708	0	0
10.15	-2.892	1.31053	-1.24405	0.665315	1.67558	0.956109	-0.109114	0.0977449	-0.182425	0.525045	-0.215352	0	0	0.185737	-0.156268	-0.1412	0.779491	-0.306739	0	0	-0.461568	0.0613175	0.130618	0.818241	-0.456659	0.0642095	0.964964	1.5708	0	0	0.199439	-0.5185	-0.203302	1.22189	1.5708	0	0
10.16	-2.88843	1.30958	-1.24268	0.66532	1.6716	0.956225	-0.108539	0.0962842	-0.184404	0.520683	-0.217126	0	0	0.184001	-0.165786	-0.136599	0.807227	-0.30369	0	0	-0.46115	0.0618269	0.128626	0.816249	-0.458449	0.0628508	0.963679	1.5708	0	0	0.204013	-0.521989	-0.201026	1.22515	1.5708	0	0
10.17	-2.88641	1.30962	-1.24071	0.665302	1.66763	0.956241	-0.106266	0.0946299	-0.18502	0.517473	-0.21842	0	0	0.179072	-0.172847	-0.124026	0.824971	-0.296657	0	0	-0.459794	0.0622342	0.127074	0.814593	-0.460281	0.0619523	0.962345	1.5708	0	0	0.207977	-0.52518	-0.199147	1.22776	1.5708	0	0
10.18	-2.8824	1.30972	-1.24142	0.665254	1.66365	0.956261	-0.103576	0.0919925	-0.18568	0.515466	-0.219312	0	0	0.174734	-0.179454	-0.113422	0.845428	-0.292686	0	0	-0.458702	0.0618838	0.1257	0.813148	-0.461926	0.061208	0.961077	1.5708	0	0	0.211708	-0.528129	-0.197618	1.22991	1.5708	0	0
10.19	-2.87802	1.31015	-1.24324	0.665201	1.65969	0.956269	-0.10018	0.0889004	-0.1859	0.514326	-0.219306	0	0	0.169855	-0.185256	-0.10252	0.864178	-0.294147	0	0	-0.457452	0.0609805	0.124355	0.812216	-0.46302	0.0609031	0.959357	1.5708	0	0	0.214662	-0.530888	-0.197006	1.23193	1.5708	0	0
10.2	-2.84171	1.32913	-1.26759	0.665836	1.65421	0.956787	-0.0750069	0.0722206	-0.190503	0.519947	-0.223639	0	0	0.131937	-0.0970187	0.109209	0.784818	-0.233758	0	0	-0.447001	0.0461314	0.11232	0.805142	-0.461326	0.0469861	0.963337	1.5708	0	0	0.224188	-0.535425	-0.193754	1.23265	1.5708	0	0
10.21	-2.84345	1.32989	-1.26405	0.665513	1.65025	0.956543	-0.0698211	0.0695827	-0.191824	0.52087	-0.225161	0	0	0.132465	-0.106994	0.107842	0.815004	-0.230714	0	0	-0.444584	0.046989	0.111061	0.805018	-0.462513	0.0488744	0.961256	1.5708	0	0	0.224858	-0.537348	-0.1945	1.2348	1.5708	0	0
10.22	-2.84296	1.3311	-1.2629	0.665137	1.64619	0.956322	-0.0635701	0.0657341	-0.193699	0.52346	-0.226964	0	0	0.130915	-0.115214	0.110111	0.840053	-0.228529	0	0	-0.442259	0.0471001	0.10939	0.804991	-0.463257	0.0506145	0.959585	1.5708	0	0	0.225049	-0.539077	-0.195872	1.2369	1.5708	0	0
10.23	-2.84206	1.33247	-1.26222	0.664711	1.64206	0.956129	-0.0564823	0.0612761	-0.195795	0.527325	-0.229347	0	0	0.127858	-0.122287	0.115018	0.861228	-0.226537	0	0	-0.439985	0.0469492	0.107236	0.805204	-0.463571	0.0526999	0.957871	1.5708	0	0	0.224615	-0.540737	-0.197831	1.23928	1.5708	0	0
10.24	-2.84193	1.33356	-1.2608	0.664203	1.63784	0.955971	-0.049506	0.0567265	-0.198052	0.531368	-0.231938	0	0	0.123445	-0.129001	0.121468	0.879423	-0.224698	0	0	-0.437943	0.0471236	0.104997	0.805585	-0.463768	0.0546338	0.956	1.5708	0	0	0.224039	-0.542177	-0.19971	1.2414	1.5708	0	0
10.25	-2.84157	1.33435	-1.25957	0.663582	1.63356	0.955852	-0.043233	0.0519667	-0.200592	0.535223	-0.234309	0	0	0.117862	-0.135368	0.129021	0.895096	-0.223145	0	0	-0.436456	0.0475863	0.102757	0.805735	-0.464052	0.0561136	0.95504	1.5708	0	0	0.22333	-0.543125	-0.201681	1.24339	1.5708	0	0
10.26	-2.84126	1.3351	-1.25825	0.662833	1.62919	0.955734	-0.0365428	0.0466741	-0.203776	0.540124	-0.237752	0	0	0.111805	-0.140972	0.13805	0.908894	-0.221756	0	0	-0.435316	0.0483874	0.099992	0.80617	-0.464146	0.0581332	0.954642	1.5708	0	0	0.221858	-0.543612	-0.204683	1.24559	1.5708	0	0
